<svg xmlns="http://www.w3.org/2000/svg" width="33" height="33" viewBox="0 0 48 48"><g fill="none"><path stroke="white" stroke-linecap="round" stroke-linejoin="round" stroke-width="4" d="M30 17c4 0 11.088-.112 11.959 6.64C42.417 27.192 39.238 32.674 24 43"/><path fill="white" d="M16 11a2 2 0 1 0 4 0zM4 11a2 2 0 1 0 4 0zm4 0a4 4 0 0 1 4-4V3a8 8 0 0 0-8 8zm4-4a4 4 0 0 1 4 4h4a8 8 0 0 0-8-8z"/><path fill="white" d="M28 11a2 2 0 1 0 4 0zm-12 0a2 2 0 1 0 4 0zm4 0a4 4 0 0 1 4-4V3a8 8 0 0 0-8 8zm4-4a4 4 0 0 1 4 4h4a8 8 0 0 0-8-8z"/><path stroke="white" stroke-linecap="round" stroke-linejoin="round" stroke-width="4" d="M6 11v18m12-18v18"/><path stroke="white" stroke-linecap="round" stroke-width="4" d="M30 11v18c0 5 2.5 10 12 10"/></g></svg>